# xmcd CD database file
#
# Track frame offsets:
#	150
#	17687
#	33595
#	55375
#	71892
#	91607
#	107232
#	129800
#	150172
#	169820
#	190447
#	204112
#	221795
#	245165
#
# Disc length: 3528 seconds
#
# Revision: 1
# Processed by: cddbd v1.5PL3 Copyright (c) Steve Scherf et al.
# Submitted via: CDex 1.51
#
DISCID=bf0dc60e
DTITLE=Karl Hird - Trios
DYEAR=1996
DGENRE=Blues
TTITLE0=High society
TTITLE1=Song of the Island
TTITLE2=If Dreams come True
TTITLE3=Wild Cat Blues
TTITLE4=You tell me your dreams
TTITLE5=someday sweetheart
TTITLE6=karls dodsy tune
TTITLE7=wolverine blues
TTITLE8=nuages
TTITLE9=because of you
TTITLE10=bye bye blues
TTITLE11=mals blues
TTITLE12=turtle twist
TTITLE13=high society
EXTD=YEAR: 1996
EXTT0=
EXTT1=
EXTT2=
EXTT3=
EXTT4=
EXTT5=
EXTT6=
EXTT7=
EXTT8=
EXTT9=
EXTT10=
EXTT11=
EXTT12=
EXTT13=
PLAYORDER=
